<svg width="21" height="21" viewBox="0 0 21 21" fill="none" xmlns="http://www.w3.org/2000/svg">
<path d="M20.1281 7.33594C20.4796 7.72656 20.4796 8.3125 20.089 8.66406L8.52649 20.2266C8.17493 20.6172 7.58899 20.6172 7.23743 20.2266L0.674927 13.6641C0.284302 13.3125 0.284302 12.7266 0.674927 12.3359L2.19836 10.8125C2.58899 10.4219 3.17493 10.4219 3.52649 10.8125L7.90149 15.1484L17.2374 5.8125C17.589 5.42188 18.214 5.42188 18.5656 5.8125L20.1281 7.33594ZM7.43274 11.4766L3.05774 7.10156C2.82336 6.86719 2.82336 6.47656 3.05774 6.20312L4.85461 4.44531C5.08899 4.21094 5.47961 4.21094 5.71399 4.44531L7.90149 6.63281L13.7999 0.695312C14.0343 0.460938 14.4249 0.460938 14.6984 0.695312L16.4562 2.45312C16.6906 2.72656 16.6906 3.11719 16.4562 3.35156L8.33118 11.4766C8.0968 11.75 7.66711 11.75 7.43274 11.4766Z" fill="#707070"/>
</svg>
